{
  "title": "Jackass Presents Bad Grandpa (2013) CamRip.flv",
  "uid": 9118881,
  "size": 582998065,
  "categoryP": "video",
  "categoryS": "movies",
  "magnet": "?xt=urn:btih:9801840ab410ec4b6ce19ebaf4fc3bd4b191efb6&amp;dn=Jackass+Presents+Bad+Grandpa+%282013%29+CamRip.flv&amp;tr=udp%3A%2F%2Ftracker.openbittorrent.com%3A80&amp;tr=udp%3A%2F%2Fopen.demonii.com%3A1337&amp;tr=udp%3A%2F%2Ftracker.coppersurfer.tk%3A6969&amp;tr=udp%3A%2F%2Fexodus.desync.com%3A6969",
  "seeders": 47,
  "leechers": 1,
  "uploader": "globeplus",
  "files": -1,
  "time": 1383086239,
  "description": "Jackass Presents Bad Grandpa (2013) CamRip.flv\n\nFormat                                   : Flash Video\nFile size                                : 556 MiB\nDuration                                 : 1h 36mn\nOverall bit rate                         : 803 Kbps\nWriting application                      : Encoded By\nTagging application                      : Yet Another Metadata Injector for FLV - Version 1.9\n\nVideo\n\nFormat                                   : AVC\nFormat/Info                              : Advanced Video Codec\nFormat profile                           : &lt;a class=&quot;__cf_email__&quot; href=&quot;/cdn-cgi/l/email-protection&quot; data-cfemail=&quot;3f775658577f730c110e&quot;&gt;[email&amp;#160;protected]&lt;/a&gt;&lt;script cf-hash='f9e31' type=&quot;text/javascript&quot;&gt;\n/* &lt;![CDATA[ */!function(){try{var t=&quot;currentScript&quot;in document?document.currentScript:function(){for(var t=document.getElementsByTagName(&quot;script&quot;),e=t.length;e--;)if(t[e].getAttribute(&quot;cf-hash&quot;))return t[e]}();if(t&amp;&amp;t.previousSibling){var e,r,n,i,c=t.previousSibling,a=c.getAttribute(&quot;data-cfemail&quot;);if(a){for(e=&quot;&quot;,r=parseInt(a.substr(0,2),16),n=2;a.length-n;n+=2)i=parseInt(a.substr(n,2),16)^r,e+=String.fromCharCode(i);e=document.createTextNode(e),c.parentNode.replaceChild(e,c)}}}catch(u){}}();/* ]]&gt; */&lt;/script&gt;\nFormat settings, CABAC                   : Yes\nFormat settings, ReFrames                : 4 frames\nCodec ID                                 : 7\nDuration                                 : 1h 36mn\nBit rate                                 : 700 Kbps\nWidth                                    : 854 pixels\nHeight                                   : 480 pixels\nDisplay aspect ratio                     : 16:9\nFrame rate mode                          : Constant\nFrame rate                               : 29.970 fps\nColor space                              : YUV\nChroma subsampling                       : 4:2:0\nBit depth                                : 8 bits\nScan type                                : Progressive\nBits/(Pixel*Frame)                       : 0.057\nStream size                              : 485 MiB (87%)\nWriting library                          : x264 core 128 r2 198a7ea\n\n\nAudio\n\nFormat                                   : AAC\nFormat/Info                              : Advanced Audio Codec\nFormat profile                           : LC\nCodec ID                                 : 10\nDuration                                 : 1h 36mn\nBit rate                                 : 94.4 Kbps\nChannel(s)                               : 2 channels\nChannel positions                        : Front: L R\nSampling rate                            : 44.1 KHz\nCompression mode                         : Lossy\nDelay relative to video                  : 44ms\nStream size                              : 69.5 MiB (13%)\n\n\nPlot\n\n86-year-old Irving Zisman and Billy are on a road trip across the United States. Irving is tasked with taking his grandson to live with his father after his mother is jailed. Interspersed with the brief story segments are hidden camera pranks and stunts.\n\n\n\n\n* enjoy ...\n\n",
  "parsed": {
    "xt": "urn:btih:9801840ab410ec4b6ce19ebaf4fc3bd4b191efb6",
    "dn": "Jackass Presents Bad Grandpa (2013) CamRip.flv",
    "tr": [
      "udp://exodus.desync.com:6969",
      "udp://open.demonii.com:1337",
      "udp://tracker.coppersurfer.tk:6969",
      "udp://tracker.openbittorrent.com:80"
    ],
    "infoHash": "9801840ab410ec4b6ce19ebaf4fc3bd4b191efb6",
    "infoHashBuffer": {
      "type": "Buffer",
      "data": [
        152,
        1,
        132,
        10,
        180,
        16,
        236,
        75,
        108,
        225,
        158,
        186,
        244,
        252,
        59,
        212,
        177,
        145,
        239,
        182
      ]
    },
    "name": "Jackass Presents Bad Grandpa (2013) CamRip.flv",
    "announce": [
      "udp://exodus.desync.com:6969",
      "udp://open.demonii.com:1337",
      "udp://tracker.coppersurfer.tk:6969",
      "udp://tracker.openbittorrent.com:80"
    ],
    "urlList": []
  },
  "previous": 4,
  "peers": 22,
  "last_updated": "2016-12-27T07:47:18.051Z"
}